<?xml version="1.0" encoding="utf-8"?>
<!-- Generator: Adobe Illustrator 26.3.1, SVG Export Plug-In . SVG Version: 6.00 Build 0)  -->
<svg version="1.1" id="Layer_1" xmlns="http://www.w3.org/2000/svg" xmlns:xlink="http://www.w3.org/1999/xlink" x="0px" y="0px"
	 viewBox="0 0 95.3 78.9" style="enable-background:new 0 0 95.3 78.9;" xml:space="preserve">
<style type="text/css">
	.st0{fill:#C8102E;}
	.st1{fill:#FFFFFF;}
</style>
<g transform="matrix(1.3333 0 0 -1.3333 -197.8 153.27)">
	<g transform="matrix(.4204 0 0 .4204 139.98 49.182)">
		<path class="st0" d="M21.7,154.7v-3.4c8-0.9,12.8-3.1,24.4-14.4l4.4-4.3v-30.7h3.9v27.4l109.8-104h3.4v92.9c0,20.9,7,27.8,21,33.1
			v3.4h-45.9v-3.4c14-5.3,21-12.2,21-33.1V56.8l-97,93.2c-4.4,4.1-5.6,4.6-8.5,4.6L21.7,154.7z M50.5,60.3
			C50,41.2,43,34.7,29.5,29.6v-3.4h45.9v3.4C62,34.7,55,41.2,54.5,60.3H50.5z"/>
		<path class="st1" d="M55.4,97.8c-0.3,0-0.4,0-0.7,0c-0.4,0-0.5-0.1-0.6-0.5c-0.6-1.7-0.9-2.6-1.5-4.3c-0.6,1.7-0.9,2.6-1.5,4.3
			c-0.1,0.4-0.3,0.5-0.6,0.5c-0.3,0-0.5,0-0.8,0c-0.2,0-0.4-0.2-0.3-0.5c0.9-2.4,1.3-3.6,2.2-6.1c0.1-0.4,0.3-0.5,0.7-0.5
			c0.3,0,0.4,0,0.6,0c0.4,0,0.5,0.1,0.7,0.5c0.9,2.4,1.3,3.7,2.2,6.1C55.8,97.6,55.7,97.8,55.4,97.8L55.4,97.8z M57.8,97.8
			c-0.2,0-0.3-0.2-0.2-0.4c0.7-1.2,1-1.8,1.8-3c-0.8-1.2-1.2-1.9-2.1-3.1c-0.1-0.2,0-0.4,0.2-0.4c0.4,0,0.5,0,0.9,0
			c0.4,0,0.5,0.1,0.7,0.4c0.5,0.8,0.7,1.2,1.2,2c0.5-0.8,0.7-1.3,1.2-2.1c0.2-0.4,0.3-0.4,0.7-0.5c0.4,0,0.6,0,1,0
			c0.2,0,0.3,0.2,0.2,0.4c-0.8,1.3-1.2,2-2,3.3c0.7,1.1,1.1,1.7,1.8,2.8c0.1,0.2,0,0.4-0.2,0.4c-0.4,0-0.5,0-0.9,0
			c-0.4,0-0.5-0.1-0.7-0.4c-0.4-0.7-0.6-1-1-1.7c-0.4,0.7-0.6,1.1-1,1.8c-0.2,0.4-0.3,0.4-0.7,0.5C58.4,97.8,58.2,97.8,57.8,97.8
			L57.8,97.8z M45.1,97.6c-0.3,0-0.4,0-0.7,0c-0.3,0-0.5-0.2-0.5-0.5c0-2.4,0-3.6,0-6c0-0.3,0.2-0.5,0.5-0.5
			c1.4,0.1,2.1,0.1,3.5,0.2c0.3,0,0.5,0.2,0.5,0.5c0,0.2,0,0.3,0,0.5c0,0.3-0.2,0.5-0.5,0.5c-0.9,0-1.4-0.1-2.3-0.1c0,2,0,3,0,4.9
			C45.6,97.4,45.4,97.6,45.1,97.6L45.1,97.6z M54.3,85.2c-0.3,0-0.5-0.2-0.5-0.5c0-2.4,0-3.6,0-6c0-0.3,0.2-0.5,0.5-0.5
			c0.3,0,0.4,0,0.7,0c0.3,0,0.5,0.2,0.5,0.5c0,2.4,0,3.6,0,6c0,0.3-0.2,0.5-0.5,0.5L54.3,85.2z M58.4,85.2c-0.3,0-0.5-0.1-0.5-0.5
			c0-0.2,0-0.3,0-0.5c0-0.3,0.2-0.5,0.5-0.5c0.6,0,0.9,0,1.6-0.1c0-2,0-3-0.1-4.9c0-0.3,0.2-0.5,0.5-0.5c0.3,0,0.4,0,0.7,0
			c0.3,0,0.5,0.1,0.5,0.5c0,2,0,3,0,4.9c0.6,0,0.9,0,1.6-0.1c0.3,0,0.5,0.1,0.5,0.5c0,0.2,0,0.3,0,0.5c0,0.3-0.2,0.5-0.5,0.5
			C61.3,85.1,60.3,85.1,58.4,85.2L58.4,85.2z M48.6,85.2c-0.9,0-1.4,0-2.3-0.1c-0.3,0-0.5-0.2-0.5-0.5c0-2.4,0-3.6,0-6
			c0-0.3,0.2-0.5,0.5-0.5c0.3,0,0.4,0,0.7,0c0.3,0,0.5,0.2,0.5,0.5c0,0.9,0,1.3,0,2.1l0.8,0c0.4-0.9,0.7-1.3,1.1-2.2
			c0.2-0.4,0.3-0.4,0.7-0.4l0.9,0c0.2,0,0.4,0.2,0.3,0.4c-0.6,1-0.8,1.5-1.4,2.5c0.7,0.4,1.1,1,1.1,1.9C51,84.4,50.1,85.2,48.6,85.2
			L48.6,85.2z M42.4,84.9c-1.6-0.1-2.4-0.2-3.9-0.3c-0.3,0-0.5-0.2-0.5-0.5c0-2.4,0-3.6,0.1-6c0-0.3,0.2-0.5,0.5-0.5
			c1.6,0.1,2.4,0.2,4.1,0.3c0.3,0,0.5,0.2,0.5,0.5c0,0.2,0,0.3,0,0.5c0,0.3-0.2,0.5-0.5,0.5c-1.1-0.1-1.7-0.1-2.8-0.2
			c0,0.5,0,0.8,0,1.3c0.8,0.1,1.1,0.1,1.9,0.2c0.3,0,0.5,0.2,0.5,0.5c0,0.2,0,0.3,0,0.4c0,0.3-0.2,0.5-0.5,0.5
			c-0.8-0.1-1.1-0.1-1.9-0.2c0,0.5,0,0.7,0,1.2c1.1,0.1,1.6,0.1,2.7,0.2c0.3,0,0.5,0.2,0.5,0.5c0,0.2,0,0.3,0,0.5
			C42.9,84.7,42.8,84.9,42.4,84.9L42.4,84.9z M67.8,84.7c-0.4,0-0.5-0.1-0.7-0.4c-1-2.3-1.5-3.5-2.6-5.9c-0.1-0.2,0-0.5,0.3-0.5
			c0.3,0,0.4,0,0.7-0.1c0.4,0,0.6,0.1,0.7,0.4c0.1,0.3,0.2,0.5,0.4,0.8c1.1-0.1,1.6-0.1,2.6-0.2c0.1-0.4,0.2-0.5,0.3-0.9
			c0.1-0.4,0.3-0.5,0.7-0.5c0.3,0,0.5,0,0.8-0.1c0.3,0,0.4,0.2,0.3,0.4c-0.9,2.5-1.4,3.8-2.3,6.3c-0.1,0.4-0.3,0.5-0.7,0.5
			C68.2,84.6,68.1,84.6,67.8,84.7z M35.1,84.2c-0.3,0-0.4-0.1-0.7-0.1c-0.4-0.1-0.5-0.2-0.6-0.6c-0.6-1.8-0.8-2.7-1.4-4.5
			c-0.7,1.6-1.1,2.4-1.8,4.1c-0.1,0.3-0.3,0.4-0.7,0.4c-0.3,0-0.5-0.1-0.8-0.1c-0.3,0-0.4-0.3-0.3-0.5c1-2.3,1.5-3.4,2.5-5.7
			c0.2-0.3,0.3-0.4,0.7-0.4l0.7,0.1c0.4,0.1,0.5,0.2,0.7,0.6c0.9,2.5,1.3,3.8,2.1,6.4C35.5,84,35.4,84.2,35.1,84.2L35.1,84.2z
			 M76.1,83.8c-1.3,0.1-2.3-0.7-2.4-1.8c0-0.7,0.3-1.4,1-1.9c0.3-0.2,1.1-0.8,1.3-1c0.3-0.2,0.4-0.4,0.4-0.6c0-0.3-0.3-0.5-0.8-0.4
			c-0.4,0-0.8,0.2-1.2,0.6c-0.2,0.2-0.5,0.2-0.7,0c-0.1-0.1-0.3-0.3-0.4-0.3c-0.2-0.2-0.2-0.5,0-0.7c0.5-0.5,1.2-0.9,2.2-1
			c1.4-0.1,2.4,0.6,2.5,1.8c0,0.7-0.3,1.4-1.1,1.9c-0.3,0.2-1.1,0.8-1.3,1c-0.3,0.2-0.4,0.4-0.4,0.6c0,0.3,0.3,0.5,0.7,0.4
			c0.2,0,0.5-0.2,0.8-0.4c0.3-0.2,0.5-0.2,0.7,0c0.1,0.1,0.2,0.3,0.3,0.3c0.2,0.2,0.2,0.5,0,0.7C77.4,83.4,76.7,83.7,76.1,83.8
			L76.1,83.8z M48.6,83.8c0.4,0,0.8-0.3,0.8-0.8c0-0.5-0.3-0.8-0.7-0.8c-0.4,0-0.6,0-1.1,0c0,0.6,0,0.9,0,1.6
			C48,83.7,48.2,83.7,48.6,83.8L48.6,83.8z M68.1,82.6c0.3-0.9,0.5-1.4,0.8-2.3c-0.7,0.1-1,0.1-1.6,0.2
			C67.6,81.3,67.7,81.7,68.1,82.6L68.1,82.6z M54.3,72.7c-0.3,0-0.5-0.2-0.5-0.5c0-0.2,0-0.3,0-0.5c0-0.3,0.2-0.5,0.5-0.5l1.6,0
			c0-2,0-3,0-4.9c0-0.3,0.2-0.5,0.5-0.5c0.3,0,0.5,0,0.8,0c0.3,0,0.5,0.2,0.5,0.5c0,2,0,3,0,4.9l1.6,0c0.3,0,0.5,0.2,0.5,0.5
			c0,0.2,0,0.3,0,0.5c0,0.3-0.2,0.5-0.5,0.5C57.3,72.6,56.3,72.6,54.3,72.7L54.3,72.7z M49.5,72.6c-0.9,0-1.4,0-2.4-0.1
			c-0.3,0-0.5-0.2-0.5-0.5c0-2.4,0-3.6,0-6c0-0.3,0.2-0.5,0.5-0.5c0.3,0,0.5,0,0.8,0c0.3,0,0.5,0.2,0.5,0.5l0,2.1c0.3,0,0.5,0,0.8,0
			c0.5-0.9,0.7-1.3,1.2-2.2c0.2-0.4,0.3-0.4,0.8-0.4c0.4,0,0.6,0,0.9,0c0.3,0,0.4,0.2,0.3,0.4c-0.6,1-0.9,1.5-1.4,2.5
			c0.8,0.4,1.2,1,1.2,1.8C52,71.8,51,72.7,49.5,72.6L49.5,72.6z M61.8,72.5c-0.3,0-0.4-0.2-0.3-0.4c0.9-2.5,1.3-3.7,2.3-6.2
			c0.1-0.4,0.3-0.5,0.7-0.5c0.3,0,0.4,0,0.7,0c0.4,0,0.6,0.1,0.7,0.4c1,2.4,1.5,3.6,2.5,5.9c0.1,0.2-0.1,0.5-0.3,0.5
			c-0.3,0-0.4,0-0.7,0c-0.4,0-0.6-0.1-0.7-0.4c-0.7-1.7-1-2.5-1.7-4.2c-0.6,1.8-0.9,2.7-1.6,4.4c-0.1,0.4-0.3,0.5-0.7,0.5L61.8,72.5
			z M42.9,72.3c-0.3,0-0.4,0-0.7,0c-0.3,0-0.5-0.2-0.5-0.5c0-2.4,0.1-3.6,0.1-6c0-0.3,0.2-0.5,0.5-0.5c0.3,0,0.5,0,0.8,0
			c0.3,0,0.5,0.2,0.5,0.5c-0.1,2.4-0.1,3.6-0.1,6C43.5,72.2,43.3,72.4,42.9,72.3z M38.7,72.1c-0.3,0-0.4,0-0.7-0.1
			c-0.4,0-0.5-0.2-0.7-0.5c-0.6-1.8-0.9-2.7-1.5-4.5c-0.7,1.7-1.1,2.5-1.8,4.1c-0.1,0.3-0.3,0.4-0.7,0.4c-0.3,0-0.5-0.1-0.8-0.1
			c-0.3,0-0.4-0.3-0.3-0.5c1-2.3,1.5-3.5,2.6-5.8c0.2-0.3,0.3-0.4,0.7-0.4c0.3,0,0.4,0,0.7,0.1c0.4,0,0.6,0.2,0.7,0.5
			c0.9,2.5,1.3,3.8,2.2,6.3C39.2,71.9,39,72.1,38.7,72.1L38.7,72.1z M72.6,71.8c-1.3,0.1-2.3-0.7-2.4-1.9c0-0.7,0.3-1.4,1-1.9
			c0.3-0.2,1-0.8,1.3-0.9c0.3-0.2,0.4-0.4,0.4-0.6c0-0.3-0.3-0.5-0.7-0.5c-0.4,0-0.7,0.2-1.2,0.6c-0.2,0.2-0.5,0.2-0.7,0
			c-0.1-0.1-0.3-0.3-0.4-0.3c-0.2-0.2-0.2-0.5,0-0.7c0.5-0.5,1.2-0.9,2.2-1c1.4-0.1,2.4,0.6,2.5,1.9c0,0.7-0.3,1.4-1,1.9
			c-0.3,0.2-1,0.8-1.3,0.9c-0.3,0.2-0.4,0.4-0.4,0.6c0,0.3,0.3,0.5,0.6,0.5c0.2,0,0.5-0.1,0.8-0.4c0.3-0.2,0.5-0.2,0.7,0
			c0.1,0.1,0.2,0.3,0.3,0.4c0.2,0.2,0.2,0.5,0,0.7C73.9,71.5,73.2,71.7,72.6,71.8L72.6,71.8z M49.5,71.2c0.4,0,0.8-0.3,0.8-0.8
			c0-0.5-0.3-0.8-0.8-0.8c-0.4,0-0.7,0-1.1,0c0,0.6,0,0.9,0,1.6C48.8,71.2,49,71.2,49.5,71.2L49.5,71.2z"/>
	</g>
</g>
</svg>
